<html>
<head>
<meta charset="UTF-8">
<meta name="viewport" content="width=device-width, initial-scale=1.0"/>

<style>
.comment
{
    padding-left: 20px;
    margin-top: 4px;
    margin-right: 4px;
    margin-bottom: 4px;
    border: 2px #000 solid;
}
.submission
{
    border: 4px #00f solid;
    padding-left: 20px;
}
.hidden
{
    display: none;
}
</style>
</head>
<body><div class="submission" id="t3_7pb0ft">
    <p class="userinfo">
        <a href="https://www.reddit.com/u/coasurdude">coasurdude</a>
        <span class="score"> | 56 points</span>
        <span class="timestamp"> | Jan 09 2018 22:48:53</span>
    </p>
    <strong>[MOVIE] Coco 2017 [DVDScr XVID 1.64 GB]</strong>
    <p><p>https://mega.nz/#!sEYXXJiS!4p8QXwNTzx5ihwzw2ODONIRkRvwy_4IgZYrMWOp3ok4
General</p>
<p>Complete name                            : Coco.2017.DVDScr.XVID.AC3.HQ.Hive-CM8.avi
Format                                   : AVI
Format/Info                              : Audio Video Interleave
File size                                : 1.64 GiB
Duration                                 : 1 h 43 min
Overall bit rate                         : 2 261 kb/s
Writing application                      : Nandub v1.0rc2
Writing library                          : Nandub build 1853/release</p>
<p>Video</p>
<p>ID                                       : 0
Format                                   : MPEG-4 Visual
Format profile                           : Advanced Simple@L5
Format settings, BVOP                    : 2
Format settings, QPel                    : Yes
Format settings, GMC                     : No warppoints
Format settings, Matrix                  : Default (H.264)
Muxing mode                              : Packed bitstream
Codec ID                                 : XVID
Codec ID/Hint                            : XviD
Duration                                 : 1 h 43 min
Bit rate                                 : 1 993 kb/s
Width                                    : 720 pixels
Height                                   : 304 pixels
Display aspect ratio                     : 2.35:1
Frame rate                               : 30.000 FPS
Color space                              : YUV
Chroma subsampling                       : 4:2:0
Bit depth                                : 8 bits
Scan type                                : Progressive
Compression mode                         : Lossy
Bits/(Pixel*Frame)                       : 0.303
Stream size                              : 1.44 GiB (88%)
Writing library                          : XviD 1.2.1 (UTC 2008-12-04)</p>
<p>Audio</p>
<p>ID                                       : 1
Format                                   : AC-3
Format/Info                              : Audio Coding 3
Format settings, Endianness              : Big
Codec ID                                 : 2000
Duration                                 : 1 h 43 min
Bit rate mode                            : Constant
Bit rate                                 : 256 kb/s
Channel(s)                               : 2 channels
Channel positions                        : Front: L R
Sampling rate                            : 48.0 kHz
Frame rate                               : 31.250 FPS (1536 SPF)
Bit depth                                : 16 bits
Compression mode                         : Lossy
Delay relative to video                  : 24 ms
Stream size                              : 190 MiB (11%)
Alignment                                : Split accross interleaves
Interleave, duration                     : 33  ms (1.00 video frame)
Interleave, preload duration             : 500  ms
Service kind                             : Complete Main</p></p>
    <p class="toolbar">
        <a href="https://www.reddit.com/r/megalinks/comments/7pb0ft">permalink</a>
    </p>
</div>
<div class="comment" id="t1_dsg046x">
    <p class="userinfo">
        <a
        class="toggle_hide_button"
        href="javascript:void(0)"
        onclick="toggle_collapse(this.parentElement.parentElement)">[-]
        </a>
        <a href="https://www.reddit.com/u/kerodean">kerodean</a>
        <span class="score"> | 6 points</span>
        <span class="timestamp"> | Jan 10 2018 00:27:09</span>
    </p>
    <div class="collapsible">
        <p>Hows the quality? Any screenshots available?</p>
        <p class="toolbar">
            <a href="https://www.reddit.com/r/megalinks/comments/7pb0ft/_/dsg046x">permalink</a>
        </p>
        <div class="comment" id="t1_dsg46wp">
    <p class="userinfo">
        <a
        class="toggle_hide_button"
        href="javascript:void(0)"
        onclick="toggle_collapse(this.parentElement.parentElement)">[-]
        </a>
        [deleted]
        <span class="score"> | 9 points</span>
        <span class="timestamp"> | Jan 10 2018 01:44:23</span>
    </p>
    <div class="collapsible">
        <p>[deleted]</p>
        <p class="toolbar">
            <a href="https://www.reddit.com/r/megalinks/comments/7pb0ft/_/dsg46wp">permalink</a>
        </p>
        <div class="comment" id="t1_dsggqrn">
    <p class="userinfo">
        <a
        class="toggle_hide_button"
        href="javascript:void(0)"
        onclick="toggle_collapse(this.parentElement.parentElement)">[-]
        </a>
        <a href="https://www.reddit.com/u/sillybandland">sillybandland</a>
        <span class="score"> | 2 points</span>
        <span class="timestamp"> | Jan 10 2018 06:12:50</span>
    </p>
    <div class="collapsible">
        <p>yea better just to wait. IT came out on blu-ray today/yesterday and i'm still waiting for a good rip</p>
        <p class="toolbar">
            <a href="https://www.reddit.com/r/megalinks/comments/7pb0ft/_/dsggqrn">permalink</a>
        </p>
        <div class="comment" id="t1_dshdiph">
    <p class="userinfo">
        <a
        class="toggle_hide_button"
        href="javascript:void(0)"
        onclick="toggle_collapse(this.parentElement.parentElement)">[-]
        </a>
        <a href="https://www.reddit.com/u/Shittyshooped">Shittyshooped</a>
        <span class="score"> | 4 points</span>
        <span class="timestamp"> | Jan 10 2018 19:29:11</span>
    </p>
    <div class="collapsible">
        <p>Bluray was posted 23 days ago</p>
<p>https://www.reddit.com/r/megalinks/comments/7kk3yk/movie_it_2017_1080p_bluray_x264sparks_87_gb/?st=jc9gjarb&amp;sh=39c2af78</p>
        <p class="toolbar">
            <a href="https://www.reddit.com/r/megalinks/comments/7pb0ft/_/dshdiph">permalink</a>
        </p>
        
    </div>
</div>
    </div>
</div>
    </div>
</div>
    </div>
</div>

<div class="comment" id="t1_dsg8uoq">
    <p class="userinfo">
        <a
        class="toggle_hide_button"
        href="javascript:void(0)"
        onclick="toggle_collapse(this.parentElement.parentElement)">[-]
        </a>
        <a href="https://www.reddit.com/u/R0gueThund3r">R0gueThund3r</a>
        <span class="score"> | 3 points</span>
        <span class="timestamp"> | Jan 10 2018 03:10:42</span>
    </p>
    <div class="collapsible">
        <p>Does anyone know if there is a Spanish audio version?</p>
        <p class="toolbar">
            <a href="https://www.reddit.com/r/megalinks/comments/7pb0ft/_/dsg8uoq">permalink</a>
        </p>
        
    </div>
</div>

<div class="comment" id="t1_dsgs35z">
    <p class="userinfo">
        <a
        class="toggle_hide_button"
        href="javascript:void(0)"
        onclick="toggle_collapse(this.parentElement.parentElement)">[-]
        </a>
        <a href="https://www.reddit.com/u/sidnoway">sidnoway</a>
        <span class="score"> | 2 points</span>
        <span class="timestamp"> | Jan 10 2018 13:09:39</span>
    </p>
    <div class="collapsible">
        <p>Encode that! The links gonna be blasted!</p>
        <p class="toolbar">
            <a href="https://www.reddit.com/r/megalinks/comments/7pb0ft/_/dsgs35z">permalink</a>
        </p>
        
    </div>
</div>
</body>

<script>
function toggle_collapse(comment_div)
{
    var button = comment_div.getElementsByClassName("toggle_hide_button")[0];
    var collapsible = comment_div.getElementsByClassName("collapsible")[0];
    if (collapsible.classList.contains("hidden"))
    {
        collapsible.classList.remove("hidden");
        button.innerText = "[-]";
    }
    else
    {
        collapsible.classList.add("hidden");
        button.innerText = "[+]";
    }
}
</script>
</html>
